<svg width="56" height="77" viewBox="0 0 56 77" fill="none" xmlns="http://www.w3.org/2000/svg">
<g clip-path="url(#clip0_18217_597)">
<path d="M49.3806 10.6792C48.813 9.81007 47.9839 9.78511 47.0391 9.75666C46.9321 9.75344 46.8236 9.75017 46.7138 9.74563C46.6302 9.74178 46.5379 9.74326 46.4414 9.74481C46.0583 9.75096 45.6101 9.75816 45.3843 9.43621C45.1225 9.06295 45.1473 8.34161 45.1678 7.74611C45.1743 7.55794 45.1804 7.38222 45.1768 7.23414C45.14 5.85081 45.0632 4.38135 44.5293 3.89011C44.1266 3.52154 42.9219 3.5726 41.8109 3.61969C41.4508 3.63496 41.1005 3.64981 40.7905 3.64981H17.1429C16.6668 3.64981 16.1677 3.61104 15.6773 3.57294C14.7218 3.49872 13.7993 3.42706 13.1442 3.64981C12.1936 3.97465 12.1292 5.68167 12.0686 7.28908L12.0653 7.37556C12.0144 8.70254 11.6856 9.72649 10.5956 9.62335C9.328 9.50532 8.06662 9.46811 7.49348 10.6154C6.81658 11.9728 6.95618 13.3938 7.20623 15.9389C7.24195 16.3024 7.27992 16.6889 7.31809 17.1014H49.7463C49.7705 16.7999 49.7963 16.5023 49.8217 16.2094C50.0204 13.9196 50.1935 11.9245 49.3806 10.6792Z" fill="#8047F8"/>
<path fill-rule="evenodd" clip-rule="evenodd" d="M10.6223 19.6257C11.2849 28.5941 11.9403 37.5727 12.5957 46.5515L12.5961 46.557C12.952 51.4322 13.3079 56.3074 13.6649 61.181H15.0187C15.111 61.9439 15.2165 62.8857 15.3278 63.8787C15.5537 65.8944 15.8033 68.1212 16.0131 69.4895H16.1628C17.5418 68.985 27.0745 64.9103 27.0788 48.6882C27.0771 48.6419 27.0786 48.5957 27.0834 48.5497H24.7283C24.6142 48.5487 24.5037 48.5106 24.4137 48.4414C24.3237 48.3722 24.2592 48.2757 24.2301 48.1667C24.0006 47.5998 23.8155 47.0162 23.6766 46.4212C22.2911 47.2037 21.1909 48.3986 20.5327 49.8356C19.9079 48.3639 19.8261 46.722 20.3016 45.1967C20.7772 43.6715 21.7797 42.3599 23.1342 41.4913C23.1516 36.7576 24.924 32.1945 28.1157 28.6656L28.1655 28.6218C28.2583 28.5416 28.3771 28.497 28.5003 28.496C28.5715 28.4966 28.6418 28.5118 28.7068 28.5407C28.7726 28.5699 28.8315 28.6125 28.8796 28.6656C32.1086 32.1992 33.8716 36.8063 33.8169 41.5679C35.1966 42.4123 36.2196 43.7229 36.6959 45.2565C37.1723 46.79 37.0697 48.4423 36.4073 49.9067C35.7526 48.4674 34.6515 47.2716 33.2633 46.4924C33.1785 47.069 33.0224 47.6332 32.7984 48.1722C32.7209 48.402 32.5659 48.5497 32.4109 48.5497H29.8993C29.9033 48.5772 29.9061 48.6049 29.9077 48.6326L29.9087 48.639V48.6524C29.9096 48.6763 29.9096 48.7002 29.9087 48.7242C29.9431 65.4121 40.0785 69.1999 40.9329 69.4895H41.2251C41.2997 68.1752 41.5426 66.3615 41.7793 64.5933C41.9425 63.3748 42.1027 62.1779 42.203 61.181H43.5725C44.0108 55.0422 44.4616 48.9205 44.9124 42.7987L44.9127 42.7954L44.9128 42.7936C45.4895 34.9631 46.0661 27.1324 46.6167 19.2652H10.71C10.6066 19.2854 10.6137 19.4545 10.6223 19.6257ZM28.5003 28.496L28.4976 28.496H28.5032L28.5003 28.496Z" fill="#8047F8"/>
<path d="M61.7904 13.4719C61.7904 11.258 62.553 9.5423 64.0784 8.32468C65.6315 7.0794 67.9612 6.45676 71.0673 6.45676C73.1196 6.45676 74.8669 6.65047 76.309 7.03789V12.7662C74.7559 12.2958 73.2167 12.0605 71.6914 12.0605C70.1937 12.0605 69.223 12.2404 68.7793 12.6002C68.3356 12.9322 68.1137 13.4304 68.1137 14.0945V28.0417C68.1137 29.37 69.1537 30.0342 71.2337 30.0342C73.3415 30.0342 75.0749 29.8266 76.4338 29.4115V35.0153C74.9362 35.4304 73.1196 35.638 70.9841 35.638C67.8779 35.638 65.5622 35.0292 64.0368 33.8116C62.5392 32.5939 61.7904 30.8782 61.7904 28.6644V13.4719Z" fill="#403937"/>
<path d="M88.5858 17.4153C88.5858 16.3637 88.0034 15.8379 86.8386 15.8379C85.6738 15.8379 85.0914 16.3637 85.0914 17.4153V28.9549C85.0914 30.0065 85.6738 30.5323 86.8386 30.5323C88.0034 30.5323 88.5858 30.0065 88.5858 28.9549V17.4153ZM78.9344 17.2077C78.9344 15.1046 79.5862 13.4719 80.8897 12.3096C82.2209 11.1197 84.2039 10.5247 86.8386 10.5247C89.4733 10.5247 91.4424 11.1197 92.7459 12.3096C94.0771 13.4719 94.7427 15.1046 94.7427 17.2077V29.1625C94.7427 31.2656 94.0771 32.9122 92.7459 34.1021C91.4424 35.2644 89.4733 35.8455 86.8386 35.8455C84.2039 35.8455 82.2209 35.2644 80.8897 34.1021C79.5862 32.9122 78.9344 31.2656 78.9344 29.1625V17.2077Z" fill="#403937"/>
<path d="M98.7861 10.6492C98.7861 5.97248 101.254 3.63411 106.191 3.63411C106.829 3.63411 107.592 3.70329 108.479 3.84165V8.65676C108.035 8.60142 107.619 8.57374 107.231 8.57374C105.817 8.57374 105.109 9.2379 105.109 10.5662V10.9398H108.479V15.8379H105.109V35.4304H98.7861V15.8379H96.4149V10.9398H98.7861V10.6492Z" fill="#403937"/>
<path d="M111.055 10.6492C111.055 5.97248 113.523 3.63411 118.46 3.63411C119.098 3.63411 119.861 3.70329 120.748 3.84165V8.65676C120.304 8.60142 119.888 8.57374 119.5 8.57374C118.086 8.57374 117.378 9.2379 117.378 10.5662V10.9398H120.748V15.8379H117.378V35.4304H111.055V15.8379H108.684V10.9398H111.055V10.6492Z" fill="#403937"/>
<path d="M122.201 28.4568V17.2077C122.201 15.1046 122.853 13.4719 124.156 12.3096C125.46 11.1197 127.429 10.5247 130.063 10.5247C135.139 10.5247 137.676 12.7524 137.676 17.2077V25.6342H128.233V27.9587C128.233 28.7889 128.455 29.3839 128.899 29.7436C129.37 30.0757 130.382 30.2417 131.935 30.2417C133.516 30.2417 135.236 29.965 137.094 29.4115V34.8908C135.153 35.4166 133.073 35.6795 130.854 35.6795C125.085 35.6795 122.201 33.2719 122.201 28.4568ZM128.233 20.8606H131.894V17.2908C131.894 16.2392 131.284 15.7134 130.063 15.7134C128.843 15.7134 128.233 16.2392 128.233 17.2908V20.8606Z" fill="#403937"/>
<path d="M140.157 28.4568V17.2077C140.157 15.1046 140.809 13.4719 142.113 12.3096C143.416 11.1197 145.385 10.5247 148.02 10.5247C153.095 10.5247 155.633 12.7524 155.633 17.2077V25.6342H146.19V27.9587C146.19 28.7889 146.411 29.3839 146.855 29.7436C147.327 30.0757 148.339 30.2417 149.892 30.2417C151.473 30.2417 153.192 29.965 155.051 29.4115V34.8908C153.109 35.4166 151.029 35.6795 148.81 35.6795C143.042 35.6795 140.157 33.2719 140.157 28.4568ZM146.19 20.8606H149.85V17.2908C149.85 16.2392 149.24 15.7134 148.02 15.7134C146.8 15.7134 146.19 16.2392 146.19 17.2908V20.8606Z" fill="#403937"/>
<path d="M71.8034 50.7144C71.8034 48.6709 70.7225 47.6491 68.5606 47.6491H65.1131V66.2795H68.5606C70.7225 66.2795 71.8034 65.235 71.8034 63.146V50.7144ZM62.6896 45.5375H68.6972C70.5176 45.5375 71.8944 46.0029 72.8274 46.9339C73.7604 47.8648 74.2269 49.1137 74.2269 50.6804V63.2142C74.2269 64.8263 73.7717 66.0978 72.8615 67.0288C71.9513 67.9597 70.5859 68.4252 68.7654 68.4252H62.6896V45.5375Z" fill="#403937"/>
<path d="M78.2152 63.4866V54.0182C78.2152 52.4061 78.6703 51.1232 79.5806 50.1695C80.5136 49.1931 81.9131 48.705 83.7791 48.705C85.645 48.705 87.0218 49.1931 87.9093 50.1695C88.8195 51.1232 89.2746 52.4061 89.2746 54.0182V59.9445H80.6046V63.3844C80.6046 64.4062 80.9232 65.1669 81.5603 65.6664C82.1975 66.1659 83.1874 66.4157 84.53 66.4157C85.8726 66.4157 87.2607 66.2114 88.6943 65.8026V68.0505C87.5565 68.4138 86.2026 68.5955 84.6324 68.5955C80.3543 68.5955 78.2152 66.8925 78.2152 63.4866ZM80.6046 57.935H86.9535V54.0182C86.9535 51.8838 85.8954 50.8166 83.7791 50.8166C81.6627 50.8166 80.6046 51.8838 80.6046 54.0182V57.935Z" fill="#403937"/>
<path d="M93.4235 43.9026H95.847V68.4252H93.4235V43.9026Z" fill="#403937"/>
<path d="M101.752 46.8658C100.773 46.8658 100.284 46.3435 100.284 45.2991C100.284 44.2546 100.773 43.7323 101.752 43.7323C102.753 43.7323 103.254 44.2546 103.254 45.2991C103.254 46.3435 102.753 46.8658 101.752 46.8658ZM100.557 49.1818H102.98V68.4252H100.557V49.1818Z" fill="#403937"/>
<path d="M115.473 49.0456H117.931L113.63 68.4252H110.216L105.915 49.0456H108.407L110.285 57.935L111.957 66.7222C112.64 62.953 113.812 57.0608 115.473 49.0456Z" fill="#403937"/>
<path d="M120.516 63.4866V54.0182C120.516 52.4061 120.971 51.1232 121.881 50.1695C122.814 49.1931 124.214 48.705 126.08 48.705C127.946 48.705 129.323 49.1931 130.21 50.1695C131.12 51.1232 131.575 52.4061 131.575 54.0182V59.9445H122.905V63.3844C122.905 64.4062 123.224 65.1669 123.861 65.6664C124.498 66.1659 125.488 66.4157 126.831 66.4157C128.173 66.4157 129.562 66.2114 130.995 65.8026V68.0505C129.857 68.4138 128.503 68.5955 126.933 68.5955C122.655 68.5955 120.516 66.8925 120.516 63.4866ZM122.905 57.935H129.254V54.0182C129.254 51.8838 128.196 50.8166 126.08 50.8166C123.964 50.8166 122.905 51.8838 122.905 54.0182V57.935Z" fill="#403937"/>
<path d="M142.005 48.9434H142.858V51.2594H141.698C140.879 51.2594 140.139 51.4751 139.479 51.9065C139.274 52.0428 138.83 52.3493 138.148 52.8261V68.4252H135.724V49.0456H138.045V50.5101C138.114 50.4647 138.284 50.3398 138.557 50.1354C138.853 49.9311 139.024 49.8176 139.069 49.7949C139.138 49.7494 139.286 49.6586 139.513 49.5224C139.763 49.3861 139.946 49.3067 140.059 49.284C140.196 49.2386 140.378 49.1818 140.605 49.1137C140.947 49.0001 141.413 48.9434 142.005 48.9434Z" fill="#403937"/>
<path d="M153.242 49.0456H155.665L150.341 73.5H148.019L149.078 68.4252H147.883L143.65 49.0456H146.108L148.156 58.6843L149.658 66.7222C150.113 64.0429 150.614 61.3636 151.16 58.6843L153.242 49.0456Z" fill="#403937"/>
</g>
<defs>
<clipPath id="clip0_18217_597">
<rect width="56" height="77" fill="white"/>
</clipPath>
</defs>
</svg>
